<svg width="21" height="21" viewBox="0 0 21 21" fill="none" xmlns="http://www.w3.org/2000/svg">
<path d="M19.25 7.455V3.4825C19.25 2.24875 18.69 1.75 17.2988 1.75H13.7637C12.3725 1.75 11.8125 2.24875 11.8125 3.4825V7.44625C11.8125 8.68875 12.3725 9.17875 13.7637 9.17875H17.2988C18.69 9.1875 19.25 8.68875 19.25 7.455Z" fill="#F48C06"/>
<path d="M19.25 17.2988V13.7637C19.25 12.3725 18.69 11.8125 17.2988 11.8125H13.7637C12.3725 11.8125 11.8125 12.3725 11.8125 13.7637V17.2988C11.8125 18.69 12.3725 19.25 13.7637 19.25H17.2988C18.69 19.25 19.25 18.69 19.25 17.2988Z" fill="#F48C06"/>
<path d="M9.1875 7.455V3.4825C9.1875 2.24875 8.6275 1.75 7.23625 1.75H3.70125C2.31 1.75 1.75 2.24875 1.75 3.4825V7.44625C1.75 8.68875 2.31 9.17875 3.70125 9.17875H7.23625C8.6275 9.1875 9.1875 8.68875 9.1875 7.455Z" fill="#F48C06"/>
<path d="M9.1875 17.2988V13.7637C9.1875 12.3725 8.6275 11.8125 7.23625 11.8125H3.70125C2.31 11.8125 1.75 12.3725 1.75 13.7637V17.2988C1.75 18.69 2.31 19.25 3.70125 19.25H7.23625C8.6275 19.25 9.1875 18.69 9.1875 17.2988Z" fill="#F48C06"/>
</svg>
