<svg width="16" height="18" viewBox="0 0 16 18" fill="none" xmlns="http://www.w3.org/2000/svg">
<path d="M11.8895 10.5725C13.9648 10.5725 15.6518 12.2377 15.6518 14.2862C15.6518 16.3336 13.9648 18 11.8895 18C9.81428 18 8.12725 16.3336 8.12725 14.2862C8.12725 12.2377 9.81428 10.5725 11.8895 10.5725ZM11.8895 12.3144C10.7872 12.3144 9.89192 13.1981 9.89192 14.2862C9.89192 15.3732 10.7872 16.2581 11.8895 16.2581C12.9919 16.2581 13.8871 15.3732 13.8871 14.2862C13.8871 13.1981 12.9919 12.3144 11.8895 12.3144ZM8.11715 13.4149C8.6042 13.4149 8.99949 13.8051 8.99949 14.2859C8.99949 14.7667 8.6042 15.1568 8.11715 15.1568H0.883161C0.396111 15.1568 0.000823515 14.7667 0.000823515 14.2859C0.000823515 13.8051 0.396111 13.4149 0.883161 13.4149H8.11715ZM3.76229 0C5.83754 0 7.52457 1.66643 7.52457 3.71376C7.52457 5.76109 5.83754 7.42753 3.76229 7.42753C1.68821 7.42753 0 5.76109 0 3.71376C0 1.66643 1.68821 0 3.76229 0ZM3.76229 1.74192C2.66113 1.74192 1.76467 2.62681 1.76467 3.71376C1.76467 4.80072 2.66113 5.68561 3.76229 5.68561C4.86462 5.68561 5.7599 4.80072 5.7599 3.71376C5.7599 2.62681 4.86462 1.74192 3.76229 1.74192ZM14.7698 2.84304C15.2569 2.84304 15.6522 3.23323 15.6522 3.714C15.6522 4.19476 15.2569 4.58495 14.7698 4.58495H7.53467C7.04762 4.58495 6.65233 4.19476 6.65233 3.714C6.65233 3.23323 7.04762 2.84304 7.53467 2.84304H14.7698Z" fill="#09110E"/>
</svg>
