<svg width="21" height="21" viewBox="0 0 21 21" fill="none" xmlns="http://www.w3.org/2000/svg">
<path d="M13.5625 11.5062H11.6637C10.1062 11.5062 8.8375 10.2463 8.8375 8.68V6.78125C8.8375 6.4225 8.54875 6.125 8.18125 6.125H5.4075C3.38625 6.125 1.75 7.4375 1.75 9.7825V15.5925C1.75 17.9375 3.38625 19.25 5.4075 19.25H10.5612C12.5825 19.25 14.2188 17.9375 14.2188 15.5925V12.1625C14.2188 11.795 13.9213 11.5062 13.5625 11.5062Z" fill="black"/>
<path d="M15.5916 1.75H13.8678H12.9141H10.4378C8.46031 1.75 6.85906 3.01 6.78906 5.25875C6.84156 5.25875 6.88531 5.25 6.93781 5.25H9.41406H10.3678H12.0916C14.1128 5.25 15.7491 6.5625 15.7491 8.9075V10.6312V13.0025V14.7262C15.7491 14.7787 15.7403 14.8225 15.7403 14.8663C17.6916 14.805 19.2491 13.51 19.2491 11.2262V9.5025V7.13125V5.4075C19.2491 3.0625 17.6128 1.75 15.5916 1.75Z" fill="black"/>
<path d="M10.485 6.25823C10.2137 5.98698 9.75 6.17073 9.75 6.54698V8.83948C9.75 9.80198 10.5637 10.5895 11.5612 10.5895C12.1825 10.5982 13.0487 10.5982 13.7925 10.5982C14.1687 10.5982 14.3612 10.1607 14.0988 9.89823C13.145 8.94448 11.4475 7.23823 10.485 6.25823Z" fill="black"/>
</svg>
