<svg width="119" height="119" viewBox="0 0 119 119" fill="none" xmlns="http://www.w3.org/2000/svg">
<path d="M84.1092 118.889H34.8908L0.111067 84.1092V34.8908L34.8908 0.111067H84.0933L118.889 34.9067V84.1092L84.1092 118.889ZM35.9697 116.319H83.0303L116.303 83.0461V35.9697L83.0303 2.68147H35.9697L2.68147 35.9697V83.0303L35.9697 116.319ZM59.5 119L17.4216 101.578L0 59.5L17.4216 17.4216L59.5 0L101.578 17.4216L119 59.5L101.578 101.578L59.5 119ZM19.4049 99.5951L59.5 116.207L99.5951 99.5951L116.207 59.5L99.5951 19.4049L59.5 2.79253L19.4049 19.4049L2.79253 59.5L19.4049 99.5951ZM77.5404 103.038H41.4596L15.9619 77.5404V41.4596L41.4596 15.9619H77.5245L103.022 41.4596V77.5245L77.5404 103.038ZM42.5385 100.452H76.4615L100.452 76.4615V42.5385L76.4615 18.5481H42.5385L18.5481 42.5385V76.4615L42.5385 100.452ZM59.5 103.149L28.6393 90.3607L15.8508 59.5L28.6393 28.6393L59.5 15.8508L90.3607 28.6393L103.149 59.5L90.3607 90.3607L59.5 103.149ZM30.6227 88.3773L59.5 100.341L88.3773 88.3773L100.341 59.5L88.3773 30.6227L59.5 18.6592L30.6227 30.6227L18.6592 59.5L30.6227 88.3773ZM80.5709 110.384H38.4291L8.6156 80.5709V38.4291L38.4291 8.6156H80.5868L110.4 38.4291V80.5868L80.5709 110.384ZM39.4921 107.798H79.5079L107.798 79.5079V39.4921L79.5079 11.2019H39.4921L11.2019 39.4921V79.5079L39.4921 107.798ZM59.5 110.495L23.4509 95.5649L8.50453 59.5L23.4351 23.4509L59.5 8.50453L95.5491 23.4351L110.495 59.5L95.5649 95.5491L59.5 110.495ZM25.4184 93.5816L59.5 107.703L93.5816 93.5816L107.703 59.5L93.5816 25.4184L59.5 11.2971L25.4184 25.4184L11.2971 59.5L25.4184 93.5816ZM80.5709 110.384H38.4291L8.6156 80.5709V38.4291L38.4291 8.6156H80.5868L110.4 38.4291V80.5868L80.5709 110.384ZM39.4921 107.798H79.5079L107.798 79.5079V39.4921L79.5079 11.2019H39.4921L11.2019 39.4921V79.5079L39.4921 107.798ZM59.5 110.495L23.4509 95.5649L8.50453 59.5L23.4351 23.4509L59.5 8.50453L95.5491 23.4351L110.495 59.5L95.5649 95.5491L59.5 110.495ZM25.4184 93.5816L59.5 107.703L93.5816 93.5816L107.703 59.5L93.5816 25.4184L59.5 11.2971L25.4184 25.4184L11.2971 59.5L25.4184 93.5816ZM74.9541 96.8025H44.0459L22.1975 74.9541V44.0459L44.0459 22.1975H74.9383L96.7867 44.0459V74.9383L74.9541 96.8025ZM45.1248 94.2163H73.8752L94.2163 73.8752V45.1248L73.8752 24.7837H45.1248L24.7837 45.1248V73.8752L45.1248 94.2163ZM59.5 96.8977L33.0503 85.9497L22.1023 59.5L33.0503 33.0503L59.5 22.1023L85.9497 33.0503L96.8977 59.5L85.9497 85.9497L59.5 96.8977ZM35.0336 83.9664L59.5 94.1052L83.9664 83.9664L94.1052 59.5L83.9664 35.0336L59.5 24.8948L35.0336 35.0336L24.8948 59.5L35.0336 83.9664ZM74.9541 96.8025H44.0459L22.1975 74.9541V44.0459L44.0459 22.1975H74.9383L96.7867 44.0459V74.9383L74.9541 96.8025ZM45.1248 94.2163H73.8752L94.2163 73.8752V45.1248L73.8752 24.7837H45.1248L24.7837 45.1248V73.8752L45.1248 94.2163ZM59.5 96.8977L33.0503 85.9497L22.1023 59.5L33.0503 33.0503L59.5 22.1023L85.9497 33.0503L96.8977 59.5L85.9497 85.9497L59.5 96.8977ZM35.0336 83.9664L59.5 94.1052L83.9664 83.9664L94.1052 59.5L83.9664 35.0336L59.5 24.8948L35.0336 35.0336L24.8948 59.5L35.0336 83.9664Z" fill="#F86624"/>
</svg>
