<svg width="86" height="27" viewBox="0 0 86 27" fill="none" xmlns="http://www.w3.org/2000/svg">
<path d="M27.2975 13.7785C28.8446 13.7785 30.0988 12.5243 30.0988 10.9771C30.0988 9.43 28.8446 8.17578 27.2975 8.17578C25.7503 8.17578 24.4961 9.43 24.4961 10.9771C24.4961 12.5243 25.7503 13.7785 27.2975 13.7785Z" fill="#FF5B10"/>
<path d="M35.5826 13.7785C37.1298 13.7785 38.384 12.5243 38.384 10.9771C38.384 9.43 37.1298 8.17578 35.5826 8.17578C34.0355 8.17578 32.7812 9.43 32.7812 10.9771C32.7812 12.5243 34.0355 13.7785 35.5826 13.7785Z" fill="#FF5B10"/>
<path d="M53.1451 13.7785C54.6923 13.7785 55.9465 12.5243 55.9465 10.9771C55.9465 9.43 54.6923 8.17578 53.1451 8.17578C51.598 8.17578 50.3438 9.43 50.3438 10.9771C50.3438 12.5243 51.598 13.7785 53.1451 13.7785Z" fill="#FF5B10"/>
<path d="M61.4342 13.7785C62.9813 13.7785 64.2355 12.5243 64.2355 10.9771C64.2355 9.43 62.9813 8.17578 61.4342 8.17578C59.887 8.17578 58.6328 9.43 58.6328 10.9771C58.6328 12.5243 59.887 13.7785 61.4342 13.7785Z" fill="#FF5B10"/>
<path d="M10.2043 21.9337C4.59661 22.3184 0 17.7908 0 12.1733V9.80103C0 4.50901 4.32535 -0.0333414 9.61737 0.00611451C12.5272 0.0258424 15.23 1.34761 17.0351 3.64099C17.04 3.64592 17.04 3.65578 17.0351 3.66071L15.4815 4.88384C15.4766 4.88878 15.4667 4.88878 15.4618 4.88384C14.0414 3.0886 11.9305 2.04796 9.65189 2.01343C5.44491 1.95425 2.00238 5.57432 2.00238 9.7813V12.2226C2.00238 16.3112 5.17858 19.808 9.2672 19.956C13.5531 20.1089 17.0844 16.6713 17.0844 12.4199V9.99831C17.0844 9.98845 17.0893 9.98351 17.0992 9.98351H21.8092C21.8191 9.98351 21.824 9.98845 21.824 9.99831V11.9711C21.824 11.981 21.8191 11.9859 21.8092 11.9859H19.0868V12.4199C19.0818 17.4555 15.156 21.5934 10.2043 21.9337Z" fill="#FF5B10"/>
<path d="M43.0688 0.00585938H41.0664V21.9581H43.0688V0.00585938Z" fill="#FF5B10"/>
<path d="M47.6703 0.00585938H45.668V21.9581H47.6703V0.00585938Z" fill="#FF5B10"/>
<path d="M86.0008 9.78032V12.197C86.0008 17.4397 81.7149 21.9475 76.4722 21.9574C73.4045 21.9623 70.6673 20.5123 68.9164 18.2584V26.194H66.9141V9.9776H68.9164V11.4917C69.967 10.5497 71.3578 9.9776 72.8818 9.9776H73.7153V11.98H72.8818C72.867 11.98 72.8472 11.98 72.8324 11.98C70.3319 12.0096 68.9312 14.949 70.4355 16.9465C71.8559 18.8305 74.1443 20.029 76.6991 19.9501C80.8025 19.8218 83.9984 16.3201 83.9984 12.2118V9.54358C83.9984 5.38592 80.6151 2.00258 76.4574 2.00258C74.1296 2.00258 71.9693 3.05309 70.5292 4.88286L68.9559 3.64493C70.7659 1.34663 73.4687 0.0199239 76.3933 0.000195941C81.6755 -0.0343279 86.0008 4.49817 86.0008 9.78032Z" fill="#FF5B10"/>
</svg>
