<svg width="21" height="21" viewBox="0 0 21 21" fill="none" xmlns="http://www.w3.org/2000/svg">
<path d="M16.9242 12.6788L16.0492 11.2262C15.8654 10.9025 15.6992 10.29 15.6992 9.93125V7.7175C15.6992 5.66125 14.4917 3.885 12.7504 3.05375C12.2954 2.24875 11.4554 1.75 10.4929 1.75C9.53916 1.75 8.68166 2.26625 8.22666 3.08C6.52041 3.92875 5.33916 5.6875 5.33916 7.7175V9.93125C5.33916 10.29 5.17291 10.9025 4.98916 11.2175L4.10541 12.6788C3.75541 13.265 3.67666 13.9125 3.89541 14.5075C4.10541 15.0938 4.60416 15.5487 5.25166 15.7675C6.94916 16.345 8.73416 16.625 10.5192 16.625C12.3042 16.625 14.0892 16.345 15.7867 15.7763C16.3992 15.575 16.8717 15.1112 17.0992 14.5075C17.3267 13.9037 17.2654 13.2387 16.9242 12.6788Z" fill="black"/>
<path d="M12.975 17.5088C12.6075 18.5238 11.6362 19.25 10.4987 19.25C9.8075 19.25 9.125 18.97 8.64375 18.4713C8.36375 18.2088 8.15375 17.8587 8.03125 17.5C8.145 17.5175 8.25875 17.5262 8.38125 17.5437C8.5825 17.57 8.7925 17.5962 9.0025 17.6137C9.50125 17.6575 10.0087 17.6837 10.5162 17.6837C11.015 17.6837 11.5137 17.6575 12.0037 17.6137C12.1875 17.5962 12.3712 17.5875 12.5462 17.5612C12.6862 17.5437 12.8262 17.5263 12.975 17.5088Z" fill="black"/>
</svg>
