<svg width="17" height="18" viewBox="0 0 17 18" fill="none" xmlns="http://www.w3.org/2000/svg">
<path fill-rule="evenodd" clip-rule="evenodd" d="M8.17001 0.5C3.65784 0.5 0 4.07705 0 8.48956C0 12.9021 3.65784 16.4791 8.17001 16.4791C10.0997 16.4791 11.8731 15.8249 13.2709 14.731L15.9265 17.3211L15.9971 17.3806C16.2437 17.559 16.5932 17.5387 16.8163 17.32C17.0617 17.0793 17.0612 16.6898 16.8151 16.4498L14.1909 13.8902C15.5254 12.4681 16.34 10.5719 16.34 8.48956C16.34 4.07705 12.6822 0.5 8.17001 0.5ZM8.17004 1.73027C11.9872 1.73027 15.0816 4.75636 15.0816 8.48922C15.0816 12.2221 11.9872 15.2482 8.17004 15.2482C4.35286 15.2482 1.25843 12.2221 1.25843 8.48922C1.25843 4.75636 4.35286 1.73027 8.17004 1.73027Z" fill="#09110E"/>
</svg>
