<svg width="19" height="19" viewBox="0 0 19 19" fill="none" xmlns="http://www.w3.org/2000/svg">
<path d="M14.3389 5.79875C14.2777 5.79 14.2164 5.79 14.1552 5.79875C12.7989 5.755 11.7227 4.64375 11.7227 3.27875C11.7227 1.8875 12.8514 0.75 14.2514 0.75C15.6427 0.75 16.7802 1.87875 16.7802 3.27875C16.7714 4.64375 15.6952 5.755 14.3389 5.79875Z" fill="black"/>
<path d="M17.1936 11.8638C16.2136 12.5201 14.8398 12.7651 13.5711 12.5988C13.9036 11.8813 14.0786 11.0851 14.0873 10.2451C14.0873 9.37008 13.8948 8.53883 13.5273 7.81258C14.8223 7.63758 16.1961 7.88258 17.1848 8.53883C18.5673 9.44883 18.5673 10.9451 17.1936 11.8638Z" fill="black"/>
<path d="M4.63562 5.79875C4.69687 5.79 4.75813 5.79 4.81938 5.79875C6.17562 5.755 7.25188 4.64375 7.25188 3.27875C7.25188 1.87875 6.12312 0.75 4.72312 0.75C3.33187 0.75 2.20312 1.87875 2.20312 3.27875C2.20312 4.64375 3.27938 5.755 4.63562 5.79875Z" fill="black"/>
<path d="M4.73172 10.2452C4.73172 11.094 4.91547 11.899 5.24797 12.6252C4.01422 12.7565 2.72797 12.494 1.78297 11.8727C0.400469 10.954 0.400469 9.45774 1.78297 8.53899C2.71922 7.90899 4.04047 7.65524 5.28297 7.79524C4.92422 8.53024 4.73172 9.36149 4.73172 10.2452Z" fill="black"/>
<path d="M9.60422 12.8863C9.53422 12.8775 9.45547 12.8775 9.37672 12.8863C7.76672 12.8337 6.48047 11.5125 6.48047 9.885C6.48922 8.2225 7.82797 6.875 9.49922 6.875C11.1617 6.875 12.5092 8.2225 12.5092 9.885C12.5005 11.5125 11.223 12.8337 9.60422 12.8863Z" fill="black"/>
<path d="M6.76047 14.698C5.43922 15.5818 5.43922 17.0343 6.76047 17.9093C8.26547 18.9155 10.733 18.9155 12.238 17.9093C13.5592 17.0255 13.5592 15.573 12.238 14.698C10.7417 13.6918 8.27422 13.6918 6.76047 14.698Z" fill="black"/>
</svg>
