<svg width="21" height="21" viewBox="0 0 21 21" fill="none" xmlns="http://www.w3.org/2000/svg">
<path d="M2.4078 16.318C2.04905 16.318 1.75155 16.0205 1.75155 15.6617V10.6742C1.7078 8.30297 2.59155 6.06297 4.23655 4.38297C5.88155 2.71172 8.08655 1.79297 10.4578 1.79297C15.3053 1.79297 19.2516 5.73922 19.2516 10.5867V15.5742C19.2516 15.933 18.9541 16.2305 18.5953 16.2305C18.2366 16.2305 17.9391 15.933 17.9391 15.5742V10.5867C17.9391 6.46547 14.5878 3.10547 10.4578 3.10547C8.43655 3.10547 6.56405 3.88422 5.1728 5.30172C3.7728 6.72797 3.02905 8.62672 3.06405 10.6567V15.653C3.06405 16.0205 2.7753 16.318 2.4078 16.318Z" fill="#F48C06"/>
<path d="M5.1975 10.8945H5.08375C3.24625 10.8945 1.75 12.3908 1.75 14.2283V15.8733C1.75 17.7108 3.24625 19.207 5.08375 19.207H5.1975C7.035 19.207 8.53125 17.7108 8.53125 15.8733V14.2283C8.53125 12.3908 7.035 10.8945 5.1975 10.8945Z" fill="#F48C06"/>
<path d="M15.9163 10.8945H15.8025C13.965 10.8945 12.4688 12.3908 12.4688 14.2283V15.8733C12.4688 17.7108 13.965 19.207 15.8025 19.207H15.9163C17.7538 19.207 19.25 17.7108 19.25 15.8733V14.2283C19.25 12.3908 17.7538 10.8945 15.9163 10.8945Z" fill="#F48C06"/>
</svg>
