<svg width="42" height="42" viewBox="0 0 42 42" fill="none" xmlns="http://www.w3.org/2000/svg">
<circle cx="21" cy="21" r="21" fill="#91C499"/>
<path d="M17.2891 15.29C16.8691 15.29 16.5391 14.95 16.5391 14.54V11.75C16.5391 11.34 16.8691 11 17.2891 11C17.7091 11 18.0391 11.34 18.0391 11.75V14.53C18.0391 14.95 17.7091 15.29 17.2891 15.29Z" fill="white"/>
<path d="M24.7109 15.29C24.2909 15.29 23.9609 14.95 23.9609 14.54V11.75C23.9609 11.33 24.3009 11 24.7109 11C25.1309 11 25.4609 11.34 25.4609 11.75V14.53C25.4609 14.95 25.1309 15.29 24.7109 15.29Z" fill="white"/>
<path d="M28.57 13.5C27.91 13.01 26.96 13.48 26.96 14.31V14.41C26.96 15.58 26.12 16.66 24.95 16.78C23.6 16.92 22.46 15.86 22.46 14.54V13.5C22.46 12.95 22.01 12.5 21.46 12.5H20.54C19.99 12.5 19.54 12.95 19.54 13.5V14.54C19.54 15.33 19.13 16.03 18.51 16.42C18.42 16.48 18.32 16.53 18.22 16.58C18.13 16.63 18.03 16.67 17.92 16.7C17.8 16.74 17.67 16.77 17.53 16.78C17.37 16.8 17.21 16.8 17.05 16.78C16.91 16.77 16.78 16.74 16.66 16.7C16.56 16.67 16.46 16.63 16.36 16.58C16.26 16.53 16.16 16.48 16.07 16.42C15.44 15.98 15.04 15.22 15.04 14.41V14.31C15.04 13.54 14.22 13.08 13.57 13.41C13.56 13.42 13.55 13.42 13.54 13.43C13.5 13.45 13.47 13.47 13.43 13.5C13.4 13.53 13.36 13.55 13.33 13.58C13.05 13.8 12.8 14.05 12.59 14.32C12.48 14.44 12.39 14.57 12.31 14.7C12.3 14.71 12.29 14.72 12.28 14.74C12.19 14.87 12.11 15.02 12.04 15.16C12.02 15.18 12.01 15.19 12.01 15.21C11.95 15.33 11.89 15.45 11.85 15.58C11.82 15.63 11.81 15.67 11.79 15.72C11.73 15.87 11.69 16.02 11.65 16.17C11.61 16.31 11.58 16.46 11.56 16.61C11.54 16.72 11.53 16.83 11.52 16.95C11.51 17.09 11.5 17.23 11.5 17.37V26.13C11.5 28.82 13.68 31 16.37 31H25.63C28.32 31 30.5 28.82 30.5 26.13V17.37C30.5 15.78 29.74 14.39 28.57 13.5ZM21 26.42H16.36C15.95 26.42 15.61 26.08 15.61 25.67C15.61 25.25 15.95 24.91 16.36 24.91H21C21.42 24.91 21.75 25.25 21.75 25.67C21.75 26.08 21.42 26.42 21 26.42ZM23.78 22.71H16.36C15.95 22.71 15.61 22.37 15.61 21.96C15.61 21.54 15.95 21.2 16.36 21.2H23.78C24.2 21.2 24.54 21.54 24.54 21.96C24.54 22.37 24.2 22.71 23.78 22.71Z" fill="white"/>
</svg>
