<svg width="19" height="19" viewBox="0 0 19 19" fill="none" xmlns="http://www.w3.org/2000/svg">
<path d="M6.875 0.75C4.5825 0.75 2.71875 2.61375 2.71875 4.90625C2.71875 7.155 4.4775 8.975 6.77 9.05375C6.84 9.045 6.91 9.045 6.9625 9.05375C6.98 9.05375 6.98875 9.05375 7.00625 9.05375C7.015 9.05375 7.015 9.05375 7.02375 9.05375C9.26375 8.975 11.0225 7.155 11.0312 4.90625C11.0312 2.61375 9.1675 0.75 6.875 0.75Z" fill="#F48C06"/>
<path d="M11.3218 11.3808C8.88055 9.75328 4.8993 9.75328 2.44055 11.3808C1.3293 12.1245 0.716797 13.1308 0.716797 14.207C0.716797 15.2833 1.3293 16.2808 2.4318 17.0158C3.6568 17.8383 5.2668 18.2495 6.8768 18.2495C8.4868 18.2495 10.0968 17.8383 11.3218 17.0158C12.4243 16.272 13.0368 15.2745 13.0368 14.1895C13.028 13.1133 12.4243 12.1158 11.3218 11.3808Z" fill="#F48C06"/>
<path d="M16.4927 5.4199C16.6327 7.1174 15.4252 8.6049 13.7539 8.80615C13.7452 8.80615 13.7452 8.80615 13.7364 8.80615H13.7102C13.6577 8.80615 13.6052 8.80615 13.5614 8.82365C12.7127 8.8674 11.9339 8.59615 11.3477 8.0974C12.2489 7.2924 12.7652 6.0849 12.6602 4.7724C12.5989 4.06365 12.3539 3.41615 11.9864 2.8649C12.3189 2.69865 12.7039 2.59365 13.0977 2.55865C14.8127 2.4099 16.3439 3.6874 16.4927 5.4199Z" fill="#F48C06"/>
<path d="M18.2402 13.5166C18.1702 14.3653 17.6277 15.1003 16.7177 15.5991C15.8427 16.0803 14.7402 16.3078 13.6465 16.2816C14.2765 15.7128 14.644 15.0041 14.714 14.2516C14.8015 13.1666 14.2852 12.1253 13.2527 11.2941C12.6665 10.8303 11.984 10.4628 11.2402 10.1916C13.174 9.6316 15.6065 10.0078 17.1027 11.2153C17.9077 11.8628 18.319 12.6766 18.2402 13.5166Z" fill="#F48C06"/>
</svg>
