<svg width="42" height="42" viewBox="0 0 42 42" fill="none" xmlns="http://www.w3.org/2000/svg">
<circle cx="21" cy="21" r="21" fill="#9AA2FD"/>
<path d="M20.5323 21.4241C23.6752 21.4241 26.2443 18.8549 26.2443 15.712C26.2443 12.5691 23.6752 10 20.5323 10C17.3894 10 14.8203 12.5691 14.8203 15.712C14.8203 18.8549 17.3895 21.4241 20.5323 21.4241Z" fill="white"/>
<path d="M30.3342 25.988C30.1845 25.6139 29.985 25.2647 29.7605 24.9404C28.6131 23.2442 26.8421 22.1218 24.8467 21.8474C24.5973 21.8225 24.3229 21.8723 24.1233 22.022C23.0757 22.7953 21.8286 23.1944 20.5315 23.1944C19.2344 23.1944 17.9872 22.7953 16.9396 22.022C16.7401 21.8723 16.4657 21.7975 16.2163 21.8474C14.2208 22.1218 12.4249 23.2442 11.3025 24.9404C11.078 25.2647 10.8784 25.6388 10.7288 25.988C10.654 26.1377 10.6789 26.3123 10.7537 26.462C10.9533 26.8112 11.2027 27.1604 11.4272 27.4597C11.7763 27.9337 12.1505 28.3577 12.5746 28.7568C12.9238 29.1059 13.3228 29.4302 13.722 29.7545C15.6925 31.2262 18.0621 31.9994 20.5065 31.9994C22.951 31.9994 25.3206 31.2261 27.2911 29.7545C27.6902 29.4552 28.0893 29.1059 28.4385 28.7568C28.8376 28.3577 29.2367 27.9336 29.5859 27.4597C29.8354 27.1354 30.0599 26.8112 30.2594 26.462C30.3841 26.3123 30.409 26.1377 30.3342 25.988Z" fill="white"/>
</svg>
