<svg width="21" height="21" viewBox="0 0 21 21" fill="none" xmlns="http://www.w3.org/2000/svg">
<path d="M7.875 1.75C5.5825 1.75 3.71875 3.61375 3.71875 5.90625C3.71875 8.155 5.4775 9.975 7.77 10.0538C7.84 10.045 7.91 10.045 7.9625 10.0538C7.98 10.0538 7.98875 10.0538 8.00625 10.0538C8.015 10.0538 8.015 10.0538 8.02375 10.0538C10.2638 9.975 12.0225 8.155 12.0312 5.90625C12.0312 3.61375 10.1675 1.75 7.875 1.75Z" fill="black"/>
<path d="M12.3198 12.3808C9.87859 10.7533 5.89734 10.7533 3.43859 12.3808C2.32734 13.1245 1.71484 14.1308 1.71484 15.207C1.71484 16.2833 2.32734 17.2808 3.42984 18.0158C4.65484 18.8383 6.26484 19.2495 7.87484 19.2495C9.48484 19.2495 11.0948 18.8383 12.3198 18.0158C13.4223 17.272 14.0348 16.2745 14.0348 15.1895C14.0261 14.1133 13.4223 13.1158 12.3198 12.3808Z" fill="black"/>
<path d="M17.4887 6.4199C17.6288 8.1174 16.4213 9.6049 14.75 9.80615C14.7413 9.80615 14.7413 9.80615 14.7325 9.80615H14.7062C14.6537 9.80615 14.6012 9.80615 14.5575 9.82365C13.7087 9.8674 12.93 9.59615 12.3438 9.0974C13.245 8.2924 13.7613 7.0849 13.6562 5.7724C13.595 5.06365 13.35 4.41615 12.9825 3.8649C13.315 3.69865 13.7 3.59365 14.0938 3.55865C15.8088 3.4099 17.34 4.6874 17.4887 6.4199Z" fill="black"/>
<path d="M19.2383 14.5166C19.1683 15.3653 18.6258 16.1003 17.7158 16.5991C16.8408 17.0803 15.7383 17.3078 14.6445 17.2816C15.2745 16.7128 15.642 16.0041 15.712 15.2516C15.7995 14.1666 15.2833 13.1253 14.2508 12.2941C13.6645 11.8303 12.982 11.4628 12.2383 11.1916C14.172 10.6316 16.6045 11.0078 18.1008 12.2153C18.9058 12.8628 19.317 13.6766 19.2383 14.5166Z" fill="black"/>
</svg>
