<svg width="21" height="22" viewBox="0 0 21 22" fill="none" xmlns="http://www.w3.org/2000/svg">
<path d="M10.5323 11.4241C13.6752 11.4241 16.2443 8.85491 16.2443 5.71203C16.2443 2.56915 13.6752 0 10.5323 0C7.38941 0 4.82031 2.56915 4.82031 5.71203C4.82031 8.85491 7.38946 11.4241 10.5323 11.4241Z" fill="white"/>
<path d="M20.3342 15.988C20.1845 15.6139 19.985 15.2647 19.7605 14.9404C18.6131 13.2442 16.8421 12.1218 14.8467 11.8474C14.5973 11.8225 14.3229 11.8723 14.1233 12.022C13.0757 12.7953 11.8286 13.1944 10.5315 13.1944C9.23439 13.1944 7.98724 12.7953 6.93962 12.022C6.74005 11.8723 6.46567 11.7975 6.21626 11.8474C4.22079 12.1218 2.42489 13.2442 1.30245 14.9404C1.07796 15.2647 0.878399 15.6388 0.728772 15.988C0.653958 16.1377 0.67888 16.3123 0.753694 16.462C0.95326 16.8112 1.20267 17.1604 1.42716 17.4597C1.77635 17.9337 2.15051 18.3577 2.57457 18.7568C2.92376 19.1059 3.32284 19.4302 3.72197 19.7545C5.69247 21.2262 8.06211 21.9994 10.5065 21.9994C12.951 21.9994 15.3206 21.2261 17.2911 19.7545C17.6902 19.4552 18.0893 19.1059 18.4385 18.7568C18.8376 18.3577 19.2367 17.9336 19.5859 17.4597C19.8354 17.1354 20.0599 16.8112 20.2594 16.462C20.3841 16.3123 20.409 16.1377 20.3342 15.988Z" fill="white"/>
</svg>
